<svg width="68" height="23" viewBox="0 0 68 23" fill="none" xmlns="http://www.w3.org/2000/svg">
<path d="M26.8587 18.19C25.6047 18.19 24.471 17.9177 23.4577 17.373C22.457 16.8157 21.6653 16.0303 21.0827 15.017C20.5 13.991 20.2087 12.775 20.2087 11.369C20.2087 9.95033 20.5 8.73433 21.0827 7.721C21.6653 6.70767 22.457 5.92867 23.4577 5.384C24.471 4.82667 25.6047 4.548 26.8587 4.548C27.796 4.548 28.6067 4.662 29.2907 4.89C29.9747 5.118 30.608 5.39667 31.1907 5.726C31.3173 5.78933 31.4123 5.878 31.4757 5.992C31.5517 6.09333 31.596 6.23267 31.6087 6.41C31.6213 6.61267 31.558 6.79 31.4187 6.942C31.2793 7.094 31.0893 7.17 30.8487 7.17C30.722 7.17 30.608 7.14467 30.5067 7.094C30 6.828 29.4807 6.61267 28.9487 6.448C28.4167 6.28333 27.777 6.201 27.0297 6.201C25.915 6.201 24.9777 6.429 24.2177 6.885C23.4577 7.341 22.8877 7.96167 22.5077 8.747C22.1277 9.51967 21.9377 10.3937 21.9377 11.369C21.9377 12.3443 22.1277 13.2247 22.5077 14.01C22.8877 14.7827 23.4577 15.397 24.2177 15.853C24.9777 16.309 25.915 16.537 27.0297 16.537C27.777 16.537 28.4167 16.4547 28.9487 16.29C29.4807 16.1253 30 15.91 30.5067 15.644C30.608 15.5933 30.722 15.568 30.8487 15.568C31.0893 15.568 31.2793 15.644 31.4187 15.796C31.558 15.948 31.6213 16.1253 31.6087 16.328C31.596 16.5053 31.5517 16.651 31.4757 16.765C31.4123 16.8663 31.3173 16.9487 31.1907 17.012C30.608 17.3413 29.9747 17.62 29.2907 17.848C28.6067 18.076 27.796 18.19 26.8587 18.19ZM37.9226 18.095C37.6819 18.095 37.4793 18.0127 37.3146 17.848C37.1499 17.6833 37.0676 17.4807 37.0676 17.24V5.517C37.0676 5.27633 37.1499 5.07367 37.3146 4.909C37.4793 4.73167 37.6819 4.643 37.9226 4.643C38.1633 4.643 38.3659 4.73167 38.5306 4.909C38.7079 5.07367 38.7966 5.27633 38.7966 5.517V10.571H45.9976V5.517C45.9976 5.27633 46.0799 5.07367 46.2446 4.909C46.4093 4.73167 46.6119 4.643 46.8526 4.643C47.0933 4.643 47.2959 4.73167 47.4606 4.909C47.6379 5.07367 47.7266 5.27633 47.7266 5.517V17.24C47.7266 17.4807 47.6379 17.6833 47.4606 17.848C47.2959 18.0127 47.0933 18.095 46.8526 18.095C46.6119 18.095 46.4093 18.0127 46.2446 17.848C46.0799 17.6833 45.9976 17.4807 45.9976 17.24V12.186H38.7966V17.24C38.7966 17.4807 38.7079 17.6833 38.5306 17.848C38.3659 18.0127 38.1633 18.095 37.9226 18.095ZM60.1314 18.19C58.776 18.19 57.6044 17.8987 56.6164 17.316C55.6284 16.7333 54.862 15.929 54.3174 14.903C53.7727 13.877 53.4877 12.699 53.4624 11.369C53.4877 10.039 53.7727 8.861 54.3174 7.835C54.862 6.809 55.6284 6.00467 56.6164 5.422C57.6044 4.83933 58.776 4.548 60.1314 4.548C61.4867 4.548 62.6584 4.83933 63.6464 5.422C64.6344 6.00467 65.4007 6.809 65.9454 7.835C66.49 8.861 66.775 10.039 66.8004 11.369C66.775 12.699 66.49 13.877 65.9454 14.903C65.4007 15.929 64.6344 16.7333 63.6464 17.316C62.6584 17.8987 61.4867 18.19 60.1314 18.19ZM60.1314 16.575C61.1827 16.575 62.0757 16.347 62.8104 15.891C63.545 15.4223 64.1024 14.7953 64.4824 14.01C64.875 13.2247 65.0714 12.3443 65.0714 11.369C65.0714 10.3937 64.875 9.51333 64.4824 8.728C64.1024 7.94267 63.545 7.322 62.8104 6.866C62.0757 6.39733 61.1827 6.163 60.1314 6.163C59.08 6.163 58.187 6.39733 57.4524 6.866C56.7177 7.322 56.154 7.94267 55.7614 8.728C55.3814 9.51333 55.1914 10.3937 55.1914 11.369C55.1914 12.3443 55.3814 13.2247 55.7614 14.01C56.154 14.7953 56.7177 15.4223 57.4524 15.891C58.187 16.347 59.08 16.575 60.1314 16.575Z" fill="white"/>
<path d="M23.4577 17.373L22.9711 18.2466L22.9776 18.2503L22.9842 18.2538L23.4577 17.373ZM21.0827 15.017L20.2131 15.5108L20.2158 15.5155L21.0827 15.017ZM21.0827 7.721L21.9496 8.21947H21.9496L21.0827 7.721ZM23.4577 5.384L23.9357 6.26233L23.9396 6.26022L23.4577 5.384ZM29.2907 4.89L29.6069 3.94132L29.6069 3.94132L29.2907 4.89ZM31.1907 5.726L30.6986 6.59656L30.7207 6.60906L30.7435 6.62043L31.1907 5.726ZM31.4757 5.992L30.6015 6.47764L30.6347 6.53735L30.6757 6.592L31.4757 5.992ZM31.6087 6.41L32.6068 6.34762L32.6061 6.33875L31.6087 6.41ZM31.4187 6.942L32.1558 7.61773L32.1558 7.61772L31.4187 6.942ZM30.5067 7.094L30.0418 7.9794L30.0506 7.984L30.0595 7.98843L30.5067 7.094ZM28.9487 6.448L29.2444 5.49271L28.9487 6.448ZM24.2177 6.885L23.7032 6.02751L24.2177 6.885ZM22.5077 8.747L23.405 9.18833L23.4078 9.18256L22.5077 8.747ZM22.5077 14.01L21.6075 14.4456L21.6103 14.4513L22.5077 14.01ZM24.2177 15.853L23.7032 16.7105H23.7032L24.2177 15.853ZM28.9487 16.29L29.2444 17.2453L28.9487 16.29ZM30.5067 15.644L30.0595 14.7496L30.0506 14.754L30.0418 14.7586L30.5067 15.644ZM31.4187 15.796L32.1558 15.1203L32.1558 15.1203L31.4187 15.796ZM31.6087 16.328L32.6062 16.3992L32.6067 16.3904L31.6087 16.328ZM31.4757 16.765L30.6436 16.2103L30.6355 16.2225L30.6277 16.235L31.4757 16.765ZM31.1907 17.012L30.7435 16.1176L30.7207 16.1289L30.6986 16.1414L31.1907 17.012ZM29.2907 17.848L29.6069 18.7967V18.7967L29.2907 17.848ZM26.8587 18.19V17.19C25.7547 17.19 24.7861 16.9517 23.9311 16.4922L23.4577 17.373L22.9842 18.2538C24.156 18.8836 25.4547 19.19 26.8587 19.19V18.19ZM23.4577 17.373L23.9443 16.4994C23.1054 16.0322 22.4438 15.378 21.9496 14.5185L21.0827 15.017L20.2158 15.5155C20.8869 16.6826 21.8086 17.5992 22.9711 18.2466L23.4577 17.373ZM21.0827 15.017L21.9522 14.5232C21.4701 13.6742 21.2087 12.6351 21.2087 11.369H20.2087H19.2087C19.2087 12.9149 19.5299 14.3078 20.2131 15.5108L21.0827 15.017ZM20.2087 11.369H21.2087C21.2087 10.088 21.471 9.05181 21.9496 8.21947L21.0827 7.721L20.2158 7.22253C19.529 8.41685 19.2087 9.81266 19.2087 11.369H20.2087ZM21.0827 7.721L21.9496 8.21947C22.4427 7.36185 23.1017 6.71632 23.9357 6.26232L23.4577 5.384L22.9796 4.50568C21.8124 5.14102 20.888 6.05348 20.2158 7.22253L21.0827 7.721ZM23.4577 5.384L23.9396 6.26022C24.793 5.79084 25.7586 5.548 26.8587 5.548V4.548V3.548C25.4508 3.548 24.149 3.86249 22.9758 4.50778L23.4577 5.384ZM26.8587 4.548V5.548C27.719 5.548 28.4178 5.65312 28.9744 5.83868L29.2907 4.89L29.6069 3.94132C28.7956 3.67088 27.873 3.548 26.8587 3.548V4.548ZM29.2907 4.89L28.9744 5.83868C29.6021 6.0479 30.176 6.30118 30.6986 6.59656L31.1907 5.726L31.6827 4.85544C31.04 4.49215 30.3472 4.18809 29.6069 3.94132L29.2907 4.89ZM31.1907 5.726L30.7435 6.62043C30.7286 6.61302 30.7032 6.59776 30.6746 6.57105C30.6455 6.54385 30.6204 6.51163 30.6015 6.47764L31.4757 5.992L32.3498 5.50636C32.1802 5.20096 31.9286 4.97692 31.6379 4.83157L31.1907 5.726ZM31.4757 5.992L30.6757 6.592C30.6369 6.54035 30.6197 6.49665 30.613 6.4757C30.6067 6.45598 30.6093 6.45511 30.6112 6.48125L31.6087 6.41L32.6061 6.33875C32.5851 6.04399 32.5046 5.69721 32.2757 5.392L31.4757 5.992ZM31.6087 6.41L30.6106 6.47238C30.6092 6.44909 30.6115 6.40746 30.6289 6.35866C30.6462 6.31021 30.6697 6.27922 30.6815 6.26628L31.4187 6.942L32.1558 7.61772C32.4756 7.26886 32.6366 6.82625 32.6067 6.34762L31.6087 6.41ZM31.4187 6.942L30.6815 6.26627C30.7125 6.23252 30.7548 6.2027 30.8003 6.18452C30.8422 6.16774 30.8638 6.17 30.8487 6.17V7.17V8.17C31.3183 8.17 31.795 8.01136 32.1558 7.61773L31.4187 6.942ZM30.8487 7.17V6.17C30.8522 6.17 30.8652 6.17038 30.8851 6.17481C30.9054 6.17933 30.9292 6.18723 30.9539 6.19957L30.5067 7.094L30.0595 7.98843C30.3153 8.11636 30.5853 8.17 30.8487 8.17V7.17ZM30.5067 7.094L30.9715 6.2086C30.4122 5.91497 29.8363 5.67595 29.2444 5.49271L28.9487 6.448L28.653 7.40329C29.125 7.54938 29.5878 7.74103 30.0418 7.9794L30.5067 7.094ZM28.9487 6.448L29.2444 5.49271C28.5902 5.29025 27.8453 5.201 27.0297 5.201V6.201V7.201C27.7087 7.201 28.2431 7.27642 28.653 7.40329L28.9487 6.448ZM27.0297 6.201V5.201C25.78 5.201 24.6539 5.45705 23.7032 6.02751L24.2177 6.885L24.7322 7.74249C25.3014 7.40095 26.05 7.201 27.0297 7.201V6.201ZM24.2177 6.885L23.7032 6.02751C22.7791 6.58194 22.0737 7.348 21.6075 8.31144L22.5077 8.747L23.4078 9.18256C23.7017 8.57533 24.1362 8.10006 24.7322 7.74249L24.2177 6.885ZM22.5077 8.747L21.6103 8.30568C21.1543 9.23289 20.9377 10.2611 20.9377 11.369H21.9377H22.9377C22.9377 10.5263 23.101 9.80645 23.405 9.18832L22.5077 8.747ZM21.9377 11.369H20.9377C20.9377 12.4772 21.1544 13.5092 21.6075 14.4456L22.5077 14.01L23.4078 13.5744C23.1009 12.9402 22.9377 12.2114 22.9377 11.369H21.9377ZM22.5077 14.01L21.6103 14.4513C22.0778 15.4019 22.7833 16.1586 23.7032 16.7105L24.2177 15.853L24.7322 14.9955C24.1321 14.6354 23.6975 14.1634 23.405 13.5687L22.5077 14.01ZM24.2177 15.853L23.7032 16.7105C24.6539 17.2809 25.78 17.537 27.0297 17.537V16.537V15.537C26.05 15.537 25.3014 15.3371 24.7322 14.9955L24.2177 15.853ZM27.0297 16.537V17.537C27.8453 17.537 28.5902 17.4478 29.2444 17.2453L28.9487 16.29L28.653 15.3347C28.2431 15.4616 27.7087 15.537 27.0297 15.537V16.537ZM28.9487 16.29L29.2444 17.2453C29.8363 17.0621 30.4122 16.823 30.9715 16.5294L30.5067 15.644L30.0418 14.7586C29.5878 14.997 29.125 15.1886 28.653 15.3347L28.9487 16.29ZM30.5067 15.644L30.9539 16.5384C30.9292 16.5508 30.9055 16.5587 30.8851 16.5632C30.8652 16.5676 30.8522 16.568 30.8487 16.568V15.568V14.568C30.5853 14.568 30.3153 14.6216 30.0595 14.7496L30.5067 15.644ZM30.8487 15.568V16.568C30.8638 16.568 30.8422 16.5703 30.8003 16.5535C30.7548 16.5353 30.7125 16.5055 30.6815 16.4717L31.4187 15.796L32.1558 15.1203C31.795 14.7266 31.3183 14.568 30.8487 14.568V15.568ZM31.4187 15.796L30.6815 16.4717C30.6697 16.4588 30.6462 16.4278 30.6289 16.3793C30.6115 16.3305 30.6092 16.2889 30.6106 16.2656L31.6087 16.328L32.6067 16.3904C32.6366 15.9117 32.4756 15.4691 32.1558 15.1203L31.4187 15.796ZM31.6087 16.328L30.6112 16.2568C30.6073 16.3114 30.5991 16.2771 30.6436 16.2103L31.4757 16.765L32.3077 17.3197C32.5043 17.0249 32.5847 16.6992 32.6061 16.3992L31.6087 16.328ZM31.4757 16.765L30.6277 16.235C30.6515 16.197 30.6782 16.1677 30.702 16.1471C30.725 16.1271 30.7413 16.1187 30.7435 16.1176L31.1907 17.012L31.6379 17.9064C31.8984 17.7762 32.1461 17.5792 32.3237 17.295L31.4757 16.765ZM31.1907 17.012L30.6986 16.1414C30.176 16.4368 29.6021 16.6901 28.9744 16.8993L29.2907 17.848L29.6069 18.7967C30.3472 18.5499 31.04 18.2459 31.6827 17.8826L31.1907 17.012ZM29.2907 17.848L28.9744 16.8993C28.4178 17.0849 27.719 17.19 26.8587 17.19V18.19V19.19C27.873 19.19 28.7956 19.0671 29.6069 18.7967L29.2907 17.848ZM37.3146 17.848L38.0217 17.1409L37.3146 17.848ZM37.3146 4.909L38.0217 5.61611L38.0348 5.60302L38.0474 5.58945L37.3146 4.909ZM38.5306 4.909L37.7978 5.58945L37.823 5.61659L37.8502 5.64179L38.5306 4.909ZM38.7966 10.571H37.7966V11.571H38.7966V10.571ZM45.9976 10.571V11.571H46.9976V10.571H45.9976ZM46.2446 4.909L46.9517 5.61611L46.9648 5.60302L46.9774 5.58945L46.2446 4.909ZM47.4606 4.909L46.7278 5.58945L46.753 5.61659L46.7802 5.64179L47.4606 4.909ZM47.4606 17.848L46.7802 17.1152L46.7666 17.1278L46.7535 17.1409L47.4606 17.848ZM46.2446 17.848L45.5375 18.5551L46.2446 17.848ZM45.9976 12.186H46.9976V11.186H45.9976V12.186ZM38.7966 12.186V11.186H37.7966V12.186H38.7966ZM38.5306 17.848L37.8502 17.1152L37.8366 17.1278L37.8235 17.1409L38.5306 17.848ZM37.9226 18.095V17.095C37.9183 17.095 37.9368 17.0947 37.9665 17.1068C37.9968 17.1191 38.0158 17.1349 38.0217 17.1409L37.3146 17.848L36.6075 18.5551C36.9666 18.9142 37.4266 19.095 37.9226 19.095V18.095ZM37.3146 17.848L38.0217 17.1409C38.0277 17.1469 38.0435 17.1658 38.0558 17.1961C38.0679 17.2258 38.0676 17.2443 38.0676 17.24H37.0676H36.0676C36.0676 17.736 36.2484 18.196 36.6075 18.5551L37.3146 17.848ZM37.0676 17.24H38.0676V5.517H37.0676H36.0676V17.24H37.0676ZM37.0676 5.517H38.0676C38.0676 5.51273 38.0679 5.53122 38.0558 5.56088C38.0435 5.59119 38.0277 5.61014 38.0217 5.61611L37.3146 4.909L36.6075 4.20189C36.2484 4.56099 36.0676 5.02104 36.0676 5.517H37.0676ZM37.3146 4.909L38.0474 5.58945C38.0452 5.59177 38.0266 5.61004 37.9909 5.62566C37.9551 5.64133 37.928 5.643 37.9226 5.643V4.643V3.643C37.4021 3.643 36.9345 3.84873 36.5818 4.22855L37.3146 4.909ZM37.9226 4.643V5.643C37.9172 5.643 37.8901 5.64133 37.8543 5.62566C37.8186 5.61004 37.8 5.59177 37.7978 5.58945L38.5306 4.909L39.2634 4.22855C38.9107 3.84873 38.4431 3.643 37.9226 3.643V4.643ZM38.5306 4.909L37.8502 5.64179C37.8478 5.63964 37.8296 5.62101 37.814 5.58532C37.7983 5.5495 37.7966 5.52237 37.7966 5.517H38.7966H39.7966C39.7966 4.99652 39.5909 4.52889 39.2111 4.17621L38.5306 4.909ZM38.7966 5.517H37.7966V10.571H38.7966H39.7966V5.517H38.7966ZM38.7966 10.571V11.571H45.9976V10.571V9.571H38.7966V10.571ZM45.9976 10.571H46.9976V5.517H45.9976H44.9976V10.571H45.9976ZM45.9976 5.517H46.9976C46.9976 5.51273 46.9979 5.53122 46.9858 5.56088C46.9735 5.59119 46.9577 5.61014 46.9517 5.61611L46.2446 4.909L45.5375 4.20189C45.1784 4.56099 44.9976 5.02103 44.9976 5.517H45.9976ZM46.2446 4.909L46.9774 5.58945C46.9753 5.59177 46.9566 5.61004 46.9209 5.62566C46.8851 5.64133 46.858 5.643 46.8526 5.643V4.643V3.643C46.3321 3.643 45.8645 3.84873 45.5118 4.22855L46.2446 4.909ZM46.8526 4.643V5.643C46.8472 5.643 46.8201 5.64133 46.7843 5.62566C46.7486 5.61004 46.73 5.59177 46.7278 5.58945L47.4606 4.909L48.1934 4.22855C47.8407 3.84873 47.3731 3.643 46.8526 3.643V4.643ZM47.4606 4.909L46.7802 5.64179C46.7778 5.63964 46.7596 5.62101 46.744 5.58532C46.7283 5.5495 46.7266 5.52237 46.7266 5.517H47.7266H48.7266C48.7266 4.99652 48.5209 4.52889 48.1411 4.17621L47.4606 4.909ZM47.7266 5.517H46.7266V17.24H47.7266H48.7266V5.517H47.7266ZM47.7266 17.24H46.7266C46.7266 17.2346 46.7283 17.2075 46.744 17.1717C46.7596 17.136 46.7778 17.1174 46.7802 17.1152L47.4606 17.848L48.1411 18.5808C48.5209 18.2281 48.7266 17.7605 48.7266 17.24H47.7266ZM47.4606 17.848L46.7535 17.1409C46.7595 17.1349 46.7784 17.1191 46.8087 17.1068C46.8384 17.0947 46.8569 17.095 46.8526 17.095V18.095V19.095C47.3486 19.095 47.8086 18.9142 48.1677 18.5551L47.4606 17.848ZM46.8526 18.095V17.095C46.8483 17.095 46.8668 17.0947 46.8965 17.1068C46.9268 17.1191 46.9458 17.1349 46.9517 17.1409L46.2446 17.848L45.5375 18.5551C45.8966 18.9142 46.3566 19.095 46.8526 19.095V18.095ZM46.2446 17.848L46.9517 17.1409C46.9577 17.1469 46.9735 17.1658 46.9858 17.1961C46.9979 17.2258 46.9976 17.2443 46.9976 17.24H45.9976H44.9976C44.9976 17.736 45.1784 18.196 45.5375 18.5551L46.2446 17.848ZM45.9976 17.24H46.9976V12.186H45.9976H44.9976V17.24H45.9976ZM45.9976 12.186V11.186H38.7966V12.186V13.186H45.9976V12.186ZM38.7966 12.186H37.7966V17.24H38.7966H39.7966V12.186H38.7966ZM38.7966 17.24H37.7966C37.7966 17.2346 37.7983 17.2075 37.814 17.1717C37.8296 17.136 37.8478 17.1174 37.8502 17.1152L38.5306 17.848L39.2111 18.5808C39.5909 18.2281 39.7966 17.7605 39.7966 17.24H38.7966ZM38.5306 17.848L37.8235 17.1409C37.8295 17.1349 37.8484 17.1191 37.8787 17.1068C37.9084 17.0947 37.9269 17.095 37.9226 17.095V18.095V19.095C38.4186 19.095 38.8786 18.9142 39.2377 18.5551L38.5306 17.848ZM56.6164 17.316L57.1244 16.4546L56.6164 17.316ZM54.3174 14.903L53.4341 15.3719L54.3174 14.903ZM53.4624 11.369L52.4626 11.35L52.4622 11.369L52.4626 11.388L53.4624 11.369ZM54.3174 7.835L55.2006 8.30389L54.3174 7.835ZM56.6164 5.422L56.1084 4.56063V4.56063L56.6164 5.422ZM63.6464 5.422L64.1544 4.56063V4.56063L63.6464 5.422ZM65.9454 7.835L65.0621 8.30389V8.30389L65.9454 7.835ZM66.8004 11.369L67.8002 11.388L67.8006 11.369L67.8002 11.35L66.8004 11.369ZM65.9454 14.903L65.0621 14.4341L65.9454 14.903ZM63.6464 17.316L63.1384 16.4546L63.6464 17.316ZM62.8104 15.891L63.3378 16.7407L63.3482 16.7341L62.8104 15.891ZM64.4824 14.01L63.5879 13.5627L63.5822 13.5744L64.4824 14.01ZM64.4824 8.728L63.5821 9.1636L63.588 9.17521L64.4824 8.728ZM62.8104 6.866L62.2725 7.70913L62.283 7.71564L62.8104 6.866ZM57.4524 6.866L57.9798 7.7157L57.9902 7.70906L57.4524 6.866ZM55.7614 8.728L54.8669 8.28075L54.8612 8.29244L55.7614 8.728ZM55.7614 14.01L54.8611 14.4456L54.867 14.4572L55.7614 14.01ZM57.4524 15.891L56.9145 16.7341L56.925 16.7406L57.4524 15.891ZM60.1314 18.19V17.19C58.922 17.19 57.9325 16.9313 57.1244 16.4546L56.6164 17.316L56.1084 18.1774C57.2762 18.8661 58.6301 19.19 60.1314 19.19V18.19ZM56.6164 17.316L57.1244 16.4546C56.2974 15.9669 55.66 15.2994 55.2006 14.4341L54.3174 14.903L53.4341 15.3719C54.0641 16.5586 54.9594 17.4997 56.1084 18.1774L56.6164 17.316ZM54.3174 14.903L55.2006 14.4341C54.7397 13.5657 54.485 12.5458 54.4622 11.35L53.4624 11.369L52.4626 11.388C52.4905 12.8522 52.8058 14.1883 53.4341 15.3719L54.3174 14.903ZM53.4624 11.369L54.4622 11.388C54.485 10.1922 54.7397 9.17226 55.2006 8.30389L54.3174 7.835L53.4341 7.36611C52.8058 8.54974 52.4905 9.88584 52.4626 11.35L53.4624 11.369ZM54.3174 7.835L55.2006 8.30389C55.66 7.43863 56.2974 6.77107 57.1244 6.28336L56.6164 5.422L56.1084 4.56063C54.9594 5.23826 54.0641 6.17936 53.4341 7.36611L54.3174 7.835ZM56.6164 5.422L57.1244 6.28337C57.9325 5.80675 58.922 5.548 60.1314 5.548V4.548V3.548C58.6301 3.548 57.2762 3.87192 56.1084 4.56063L56.6164 5.422ZM60.1314 4.548V5.548C61.3407 5.548 62.3302 5.80675 63.1384 6.28337L63.6464 5.422L64.1544 4.56063C62.9865 3.87192 61.6327 3.548 60.1314 3.548V4.548ZM63.6464 5.422L63.1384 6.28336C63.9654 6.77107 64.6028 7.43863 65.0621 8.30389L65.9454 7.835L66.8286 7.36611C66.1986 6.17936 65.3034 5.23826 64.1544 4.56063L63.6464 5.422ZM65.9454 7.835L65.0621 8.30389C65.5231 9.17226 65.7778 10.1922 65.8006 11.388L66.8004 11.369L67.8002 11.35C67.7723 9.88584 67.457 8.54974 66.8286 7.36611L65.9454 7.835ZM66.8004 11.369L65.8006 11.35C65.7778 12.5458 65.5231 13.5657 65.0621 14.4341L65.9454 14.903L66.8286 15.3719C67.457 14.1883 67.7723 12.8522 67.8002 11.388L66.8004 11.369ZM65.9454 14.903L65.0621 14.4341C64.6028 15.2994 63.9654 15.9669 63.1384 16.4546L63.6464 17.316L64.1544 18.1774C65.3034 17.4997 66.1986 16.5586 66.8286 15.3719L65.9454 14.903ZM63.6464 17.316L63.1384 16.4546C62.3302 16.9313 61.3407 17.19 60.1314 17.19V18.19V19.19C61.6327 19.19 62.9865 18.8661 64.1544 18.1774L63.6464 17.316ZM60.1314 16.575V17.575C61.3287 17.575 62.4136 17.3142 63.3377 16.7406L62.8104 15.891L62.283 15.0414C61.7378 15.3798 61.0367 15.575 60.1314 15.575V16.575ZM62.8104 15.891L63.3482 16.7341C64.2393 16.1656 64.9219 15.3975 65.3825 14.4456L64.4824 14.01L63.5822 13.5744C63.2828 14.1932 62.8508 14.679 62.2726 15.0479L62.8104 15.891ZM64.4824 14.01L65.3768 14.4572C65.8463 13.5182 66.0714 12.4822 66.0714 11.369H65.0714H64.0714C64.0714 12.2065 63.9038 12.9311 63.588 13.5628L64.4824 14.01ZM65.0714 11.369H66.0714C66.0714 10.2558 65.8463 9.21976 65.3768 8.28079L64.4824 8.728L63.588 9.17521C63.9038 9.8069 64.0714 10.5315 64.0714 11.369H65.0714ZM64.4824 8.728L65.3825 8.29244C64.9208 7.33817 64.2349 6.57323 63.3377 6.01636L62.8104 6.866L62.283 7.71564C62.8552 8.07077 63.284 8.54716 63.5822 9.16356L64.4824 8.728ZM62.8104 6.866L63.3482 6.02294C62.4224 5.43235 61.3336 5.163 60.1314 5.163V6.163V7.163C61.0318 7.163 61.729 7.36232 62.2726 7.70906L62.8104 6.866ZM60.1314 6.163V5.163C58.9292 5.163 57.8404 5.43235 56.9146 6.02294L57.4524 6.866L57.9902 7.70906C58.5337 7.36232 59.2309 7.163 60.1314 7.163V6.163ZM57.4524 6.866L56.925 6.01636C56.0306 6.57153 55.341 7.33263 54.867 8.28079L55.7614 8.728L56.6558 9.17521C56.9671 8.5527 57.4049 8.07247 57.9797 7.71564L57.4524 6.866ZM55.7614 8.728L54.8612 8.29244C54.4081 9.22885 54.1914 10.2608 54.1914 11.369H55.1914H56.1914C56.1914 10.5266 56.3546 9.79782 56.6615 9.16356L55.7614 8.728ZM55.1914 11.369H54.1914C54.1914 12.4772 54.4081 13.5092 54.8612 14.4456L55.7614 14.01L56.6615 13.5744C56.3546 12.9402 56.1914 12.2114 56.1914 11.369H55.1914ZM55.7614 14.01L54.867 14.4572C55.3399 15.403 56.0262 16.1673 56.9146 16.7341L57.4524 15.891L57.9902 15.0479C57.4092 14.6773 56.9682 14.1876 56.6558 13.5628L55.7614 14.01ZM57.4524 15.891L56.925 16.7406C57.8491 17.3142 58.9341 17.575 60.1314 17.575V16.575V15.575C59.226 15.575 58.525 15.3798 57.9797 15.0414L57.4524 15.891Z" fill="white"/>
<line x1="2" y1="11" x2="14" y2="11" stroke="white" stroke-width="4" stroke-linecap="round"/>
<line x1="5" y1="17" x2="14" y2="17" stroke="white" stroke-width="4" stroke-linecap="round"/>
<line x1="5" y1="5" x2="14" y2="5" stroke="white" stroke-width="4" stroke-linecap="round"/>
</svg>
